<svg xmlns="http://www.w3.org/2000/svg" viewBox="0 0 696.99 210.79"><defs><style>.cls-1,.cls-2,.cls-3{fill:none;stroke:#eef4d4;stroke-miterlimit:10;}.cls-1{stroke-width:6px;}.cls-2{stroke-width:3px;}.cls-3{stroke-width:4px;}.cls-4{fill:#22223b;}.cls-5{fill:#eef4d4;}</style></defs><g id="Layer_2" data-name="Layer 2"><g id="LogoEx"><g id="art1"><circle class="cls-1" cx="178.86" cy="10.45" r="7.45"/><circle class="cls-1" cx="10.45" cy="111.6" r="7.45"/><circle class="cls-1" cx="89.71" cy="202.24" r="5.55"/><circle class="cls-1" cx="232.85" cy="99.61" r="5.63"/><circle class="cls-2" cx="406.41" cy="61.48" r="5.56"/><circle class="cls-3" cx="578.92" cy="119.35" r="3.83"/><path class="cls-4" d="M572.9,119.45c.58,0,1.62-.2,1.91-.8s-.24-.87-.79-.87-1.62.19-1.91.8.23.87.79.87Z"/><line class="cls-5" x1="16.82" y1="106.2" x2="170.46" y2="13.13"/><path class="cls-5" d="M19.41,107.05l4.08-2.47,11.2-6.79,16.49-10L71.4,75.56l22-13.36L115.8,48.66l20.75-12.57,17.62-10.67,12.61-7.64,6-3.63L173,14c.89-.54,2.84-2,.94-2.71-1.73-.63-4.58.08-6.1,1l-4.09,2.48-11.2,6.78-16.49,10L115.88,43.77l-22,13.36L71.48,70.67,50.73,83.24,33.11,93.92,20.5,101.55l-6,3.63-.27.16c-.88.54-2.84,2-.94,2.71,1.73.63,4.59-.08,6.11-1Z"/><line class="cls-5" x1="85.2" y1="197.83" x2="15.01" y2="117.48"/><path class="cls-5" d="M89.17,195.87l-7-8L65.47,168.74,45.13,145.46l-17.51-20c-2.84-3.25-5.62-6.56-8.52-9.75l-.12-.14a5,5,0,0,0-5.93-.75c-1.43.77-3.51,2.94-2,4.66l7,8,16.74,19.16,20.33,23.28,17.51,20c2.84,3.25,5.62,6.56,8.52,9.75l.12.14a5,5,0,0,0,5.93.75c1.43-.77,3.51-2.94,2-4.66Z"/><line class="cls-5" x1="94.83" y1="198.59" x2="227.82" y2="103.54"/><path class="cls-5" d="M97.73,200.63,111,191.14l31.69-22.66L181.24,141l33.12-23.67c5.37-3.84,10.87-7.56,16.14-11.54l.22-.16c1.53-1.09,2.15-3.35.44-4.59s-4.55-.7-6.24.5L211.63,111l-31.7,22.65-38.52,27.53-33.12,23.67c-5.37,3.85-10.87,7.56-16.15,11.55l-.21.15c-1.54,1.1-2.15,3.36-.44,4.59s4.55.71,6.24-.5Z"/><line class="cls-5" x1="183.96" y1="15.88" x2="230.17" y2="94.58"/><path class="cls-5" d="M179.61,17l4.6,7.83,11,18.8L208.6,66.42l11.54,19.66c1.87,3.17,3.71,6.36,5.6,9.52a.64.64,0,0,0,.08.14c.91,1.55,3.39,1.2,4.86.77.72-.2,4.68-1.64,3.83-3.09l-4.59-7.83-11-18.81L205.52,44,194,24.38c-1.86-3.18-3.7-6.37-5.59-9.53a.64.64,0,0,1-.08-.14c-.91-1.54-3.4-1.19-4.87-.77-.72.21-4.68,1.65-3.83,3.1Z"/><line class="cls-5" x1="240" y1="97.86" x2="399.61" y2="63.79"/><path class="cls-5" d="M239.25,99.7l16-3.42,38.1-8.13,46.05-9.83,39.81-8.49,19.42-4.15.26-.05a13.11,13.11,0,0,0,3.3-1.06c.5-.26,1.56-.84,1.75-1.48.46-1.62-2.88-1.28-3.56-1.13l-16,3.41-38.1,8.13-46,9.83-39.81,8.5L241,96l-.26.06a12.7,12.7,0,0,0-3.3,1c-.5.26-1.56.84-1.75,1.48-.46,1.62,2.88,1.28,3.56,1.14Z"/><line class="cls-5" x1="574.31" y1="117.76" x2="413.4" y2="62.01"/><path class="cls-5" d="M577.8,115.74l-16.08-5.57L523.37,96.89,476.76,80.74,436.68,66.86c-6.51-2.26-13-4.59-19.54-6.77l-.26-.09a7.73,7.73,0,0,0-6.14.88c-1,.57-2.82,2.45-.83,3.14L426,69.59l38.35,13.29L511,99,551,112.91c6.51,2.25,13,4.59,19.54,6.77l.26.09a7.77,7.77,0,0,0,6.14-.88c1-.57,2.82-2.46.83-3.15Z"/><line class="cls-5" x1="692.61" y1="200.09" x2="582.75" y2="121.37"/><path class="cls-5" d="M696.7,198.6l-10.94-7.84-26.29-18.84-31.68-22.7L600.4,129.59l-9-6.48c-1.43-1-2.83-2.16-4.33-3.1l-.18-.13c-1.37-1-4.23-.06-5.61.47-.51.2-3.85,1.59-2.58,2.5l11,7.85,26.28,18.83,31.68,22.71L675,191.87l9,6.47c1.43,1,2.83,2.16,4.32,3.1l.19.14c1.36,1,4.22,0,5.6-.48.52-.19,3.85-1.59,2.58-2.5Z"/><path class="cls-5" d="M416.83,62.9a4.39,4.39,0,0,0-3.12-1.42"/><path class="cls-5" d="M420.23,60.58l-.11-.09.6.51a11.26,11.26,0,0,0-1.57-1.28,9.26,9.26,0,0,0-3.85-1.08,4.87,4.87,0,0,0-1.7.12,5.78,5.78,0,0,0-1.72.51,4.32,4.32,0,0,0-1.35.86,3.06,3.06,0,0,0-.92,1l-.28.74a1.71,1.71,0,0,0,.38,1.39l.6.5a4.15,4.15,0,0,0,1.81.52c.22,0,.43.05.64.09l-1-.18a5.28,5.28,0,0,1,1,.3l-.83-.35a3.59,3.59,0,0,1,.86.52l-.61-.5c.41.34.78.71,1.21,1a3,3,0,0,0,1.31.43,4.35,4.35,0,0,0,1.61.07,5.28,5.28,0,0,0,1.74-.42,4.93,4.93,0,0,0,1.53-.74l.77-.64a2.81,2.81,0,0,0,.81-1.45l0-.74a1.94,1.94,0,0,0-.94-1.16Z"/><path class="cls-5" d="M574.5,117.39"/><path class="cls-5" d="M571.65,119.05a12.5,12.5,0,0,0,6.15-1.65c.34-.21,1.18-.66,1.05-1.17s-1.17-.49-1.5-.49a12.5,12.5,0,0,0-6.15,1.65c-.34.2-1.18.66-1.05,1.17s1.17.49,1.5.49Z"/></g></g></g></svg>