<svg xmlns="http://www.w3.org/2000/svg" xmlns:xlink="http://www.w3.org/1999/xlink" fill="none" viewBox="0 0 591 584">
  <g filter="url(#filter0_f_94_2)">
    <path fill="url(#paint0_radial_94_2)" d="M295.5 200l94.8 121.5H200.7L295.5 200z"/>
  </g>
  <mask id="path-2-outside-1_94_2" width="410" height="326" x="88" y="258" fill="#000" maskUnits="userSpaceOnUse">
    <path fill="#fff" d="M88 258h410v326H88z"/>
    <path fill-rule="evenodd" d="M460.4 582c23-33.3 36.6-73.8 36.6-117.5A204.8 204.8 0 0 0 293 259c-112.7 0-204 92-204 205.5 0 44 13.7 84.6 37 118l334.4-.5z" clip-rule="evenodd"/>
  </mask>
  <path fill="url(#paint1_linear_94_2)" fill-rule="evenodd" d="M460.4 582c23-33.3 36.6-73.8 36.6-117.5A204.8 204.8 0 0 0 293 259c-112.7 0-204 92-204 205.5 0 44 13.7 84.6 37 118l334.4-.5z" clip-rule="evenodd"/>
  <path fill="#000" d="M460.4 582v1h.5l.3-.4-.8-.6zm-334.5.5l-.8.6.3.4h.5v-1zm370.1-118c0 43.5-13.5 83.8-36.5 117l1.7 1a206.6 206.6 0 0 0 36.8-118h-2zM293 260c112.1 0 203 91.6 203 204.5h2c0-114-91.8-206.5-205-206.5v2zM90 464.5c0-113 90.9-204.5 203-204.5v-2c-113.2 0-205 92.5-205 206.5h2zm36.8 117.4A204.6 204.6 0 0 1 90 464.5h-2c0 44.1 13.7 85 37 118.6l1.8-1.2zm-.9 1.6l334.5-.5v-2l-334.5.5v2z" mask="url(#path-2-outside-1_94_2)"/>
  <g filter="url(#filter1_f_94_2)">
    <path fill="#D9D9D9" d="M240 338c1.7-.5 6-1.5 7-8 0 1.3 1.5 6 7 8 0 0-5 0-7 6.5 0-1.5-1.5-5.5-7-6.5z"/>
  </g>
  <g filter="url(#filter2_f_94_2)">
    <path fill="#D9D9D9" d="M240 392.4c.7-.2 2.6-.6 3-3.4 0 .6.6 2.6 3 3.4 0 0-2.1 0-3 2.8 0-.6-.6-2.3-3-2.8z"/>
  </g>
  <g filter="url(#filter3_f_94_2)">
    <path fill="#D9D9D9" d="M293 354.4c1-.3 3.3-.8 3.9-4.4 0 .7.8 3.3 3.8 4.4 0 0-2.7 0-3.8 3.6 0-.8-.9-3-3.9-3.6z"/>
  </g>
  <path fill="#5F1C47" fill-rule="evenodd" d="M188.5 335.9c4.4-1.7 9.2-2.3 14.4-1.8-1 9.7-1.7 19.5-1.8 29.3h-1.8c-.5-8.5 0-16.8 1.8-25-1.2-1.1-2.4-1.1-3.6 0a34.8 34.8 0 0 1-7.2 6c.6-3.2 2.4-5.7 5.4-7.7-2.3-.8-4.7-1-7.2-.8z" clip-rule="evenodd"/>
  <path fill="#816148" fill-rule="evenodd" d="M442.6 354.8v-10.3c2.6-1.4 5-1.4 7.2 0l-7.2 10.3z" clip-rule="evenodd"/>
  <path fill="#A9CA5A" fill-rule="evenodd" d="M440.8 339.3a9.5 9.5 0 0 1 1.8 5.2v10.3c-4.4-.7-6.2-3.3-5.4-7.8-.4-3.4.8-6 3.6-7.7z" clip-rule="evenodd"/>
  <path fill="#634A48" fill-rule="evenodd" d="M437.2 329c1.2 3.7 3.6 6.9 7.2 9.4a5 5 0 0 1-3.6 1c-2.8 1.6-4 4.2-3.6 7.6-.8 4.5 1 7.1 5.4 7.8v3.4a4 4 0 0 1-1 3.4 4.7 4.7 0 0 0-4.4-3.4c-4.7-1-6.5-3.8-5.4-8.6.8-7.2 2.6-14 5.4-20.6z" clip-rule="evenodd"/>
  <path fill="#971423" fill-rule="evenodd" d="M188.5 335.9c2.5-.3 4.9 0 7.2.8-3 2-4.8 4.5-5.4 7.8a27 27 0 0 0-8.1 13.7 889 889 0 0 1-8 48 119 119 0 0 1 5.3-60l3.6-8.6a11 11 0 0 1 5.4-1.7z" clip-rule="evenodd"/>
  <path fill="#261A50" fill-rule="evenodd" d="M448 356.5c1 .4 1.7 1.2 1.8 2.6a23.4 23.4 0 0 0-5.4 14.6h-1.8V365c1.3-3.2 3.1-6 5.4-8.6z" clip-rule="evenodd"/>
  <path fill="#B91D2F" fill-rule="evenodd" d="M199.3 363.4a32.4 32.4 0 0 0-7.2 6.8c-1 7.8-4 14.7-9 20.6 2.4 4 2.4 8 0 12a104 104 0 0 1 7.2-58.3 41 41 0 0 0 7.2-6c1.2-1.2 2.4-1.2 3.6 0a90.4 90.4 0 0 0-1.8 24.9z" clip-rule="evenodd"/>
  <path fill="#F29120" fill-rule="evenodd" d="M208.3 368.5c-1.3-.2-2.5 0-3.6.9a31.8 31.8 0 0 1 15.3 23.2 21 21 0 0 0 1-8.6c2.6 6 2 11.7-1.9 17.2a8.5 8.5 0 0 0-7.2 5 17 17 0 0 0-4.5 3.5 51.5 51.5 0 0 1-6.3 15.5c-11.5.4-23-.2-34.2-1.7-3-.6-4.9-2.3-5.4-5.2 3-3 6.5-5.4 10.8-6.8a17 17 0 0 0 9.9-1.8c5-10.4 8.5-21.3 10.8-32.6 1.7-5 4.7-9 9-12 2.6.5 4.7 1.6 6.3 3.4z" clip-rule="evenodd"/>
  <path fill="#EFC492" fill-rule="evenodd" d="M208.3 368.5A17.4 17.4 0 0 1 221 384a21 21 0 0 1-.9 8.6 31.8 31.8 0 0 0-15.3-23.2c1-.8 2.3-1.1 3.6-.9z" clip-rule="evenodd"/>
  <path fill="#A2610C" fill-rule="evenodd" d="M168.7 368.5c-1 14.2.3 28.5 3.6 43a26.3 26.3 0 0 0-10.8 6.8 16.2 16.2 0 0 1-4.5-8.6 39.1 39.1 0 0 1 11.7-41.2z" clip-rule="evenodd"/>
  <path fill="#177298" fill-rule="evenodd" d="M406.5 375.4c9 .7 17.2 3.5 24.4 8.6a7 7 0 0 1 0 6.8 18.9 18.9 0 0 0-18-1.7 14.4 14.4 0 0 0 .8 12c.7 5.2-.5 9.8-3.6 13.8-4.2 2.5-9 3.6-14.4 3.4-5 .3-9-.8-12.6-3.4l-1.8-3.4a4 4 0 0 0 2.7-1.8 71 71 0 0 1 3.6-15.4 95 95 0 0 1 22.5-16.3c-3-.7-6-.4-9 .8.9-2.4 2.7-3.5 5.4-3.4z" clip-rule="evenodd"/>
  <path fill="#56394A" fill-rule="evenodd" d="M448 356.5c0-1.2.6-1.7 1.8-1.7 1.8-.3 3 .2 3.6 1.7a16.4 16.4 0 0 0-1.8 7.7c.8 6.7 2 13.3 3.6 19.8-2.2 1-4.3 1.5-6.3 1.7a16 16 0 0 0-2.7-7c-1.7-1-2.3-3-1.8-5 0-5.5 1.9-10.3 5.4-14.6 0-1.4-.7-2.2-1.8-2.6z" clip-rule="evenodd"/>
  <path fill="#343669" fill-rule="evenodd" d="M401.1 378.8a8.5 8.5 0 0 1-7.2 5.2c1.4-3 3.8-4.8 7.2-5.2z" clip-rule="evenodd"/>
  <path fill="#64173C" fill-rule="evenodd" d="M190.3 344.5a104 104 0 0 0-7.2 58.4c-2 4.6-5 5.7-9 3.4 3-15.5 5.8-31.5 8-48a27 27 0 0 1 8.2-13.8z" clip-rule="evenodd"/>
  <path fill="#2D1D56" fill-rule="evenodd" d="M446.2 378.8c1.4 2 2.3 4.2 2.7 7 2-.3 4.1-1 6.3-1.8 5.2-.3 8.2 2 9 6.8-2-1.8-4.4-3-7.2-3.4a35.9 35.9 0 0 1-10.8 1.7v-10.3z" clip-rule="evenodd"/>
  <path fill="#DAC5B4" fill-rule="evenodd" d="M464.2 390.8c.8 13.7-2.8 15-10.8 4.3-2.3-.8-4.8-1-7.2-.8V389c3.7 0 7.3-.6 10.8-1.7 2.8.4 5.2 1.6 7.2 3.4z" clip-rule="evenodd"/>
  <path fill="#784A3E" fill-rule="evenodd" d="M219.1 401.2c3.7 1 4.3 2.6 1.8 5 .3-1.4-.3-2.5-1.8-3.3-2 2-4.4 3-7.2 3.4 1.4-3 3.8-4.7 7.2-5z" clip-rule="evenodd"/>
  <path fill="#7AC3D5" fill-rule="evenodd" d="M458.8 408a38.3 38.3 0 0 1-23.4 32.7c3.7-4.8 6.7-10 9-15.5a31 31 0 0 1-3.6-13.7L448 396c6.2 2 9.8 6 10.8 12z" clip-rule="evenodd"/>
  <path fill="#E58C22" fill-rule="evenodd" d="M221 406.3a19.6 19.6 0 0 0-10 7c-1 5-2.6 9.8-4.5 14.5-3.5.8-7.2 1-10.8.8-2.3.4-4-.1-5.4-1.7 4 .5 7.6 0 10.8-1.7a5 5 0 0 0 4.5-1.7 59.2 59.2 0 0 1 6.3-17.2c2.8-.3 5.2-1.5 7.2-3.4 1.5.8 2 1.9 1.8 3.4z" clip-rule="evenodd"/>
  <path fill="#5DABC3" fill-rule="evenodd" d="M381.3 411.5v-1.8a116 116 0 0 1 2.7-15.4c3.7-3.2 7-6.7 10-10.3a8.5 8.5 0 0 0 7.1-5.2c3-1.2 6-1.5 9-.8a98.3 98.3 0 0 0-22.5 16.3 71 71 0 0 0-3.6 15.4 4 4 0 0 1-2.7 1.8z" clip-rule="evenodd"/>
  <path fill="#663F41" fill-rule="evenodd" d="M212 406.3c-3 5.3-5.2 11-6.4 17.2a5.3 5.3 0 0 1-4.5 1.7c3-4.7 5-10 6.3-15.5 1.3-1.5 2.8-2.6 4.5-3.4z" clip-rule="evenodd"/>
  <path fill="#66B2C8" fill-rule="evenodd" d="M375.9 414.9c2 1.5 2 3.2 0 5.1-4.9.8-9.7 2-14.4 3.5-1.7 0-2.9-.7-3.6-1.7V420a56.5 56.5 0 0 1 18-5.1z" clip-rule="evenodd"/>
  <path fill="#6FBED1" fill-rule="evenodd" d="M424.6 416.6h7.2c10.6 3.6 11.8 9.6 3.6 18-3.8 3-8 5-12.7 6a22.7 22.7 0 0 1-3.6-17.1v-6.9h5.5z" clip-rule="evenodd"/>
  <path fill="#077097" fill-rule="evenodd" d="M375.9 420c1.5 3 4 5 7.2 6 12.4 1.8 24.4 1 36-2.5a23 23 0 0 0 3.6 17.2 31 31 0 0 1-16.2 3.4c-17-1.4-33.8-3.7-50.4-6.9-7.6-5.7-7-11 1.8-15.4.7 1 2 1.6 3.6 1.7 4.7-1.5 9.5-2.7 14.4-3.5z" clip-rule="evenodd"/>
  <path fill="#363E72" fill-rule="evenodd" d="M413.7 401.2c2.3 6 6 11.2 11 15.4H419v6.9a82.7 82.7 0 0 1-36 2.6 12.4 12.4 0 0 1-7.2-6c2-2 2-3.7 0-5.2l5.4-5.2v1.8l1.8 3.4c-4 1.6-4.6 4.2-1.8 7.7 12 3.6 23.6 3.3 35-.8 2-7 0-9-6.2-7 3.1-4 4.3-8.5 3.6-13.6z" clip-rule="evenodd"/>
  <path fill="#7999BE" fill-rule="evenodd" d="M383.1 414.9c3.5 2.6 7.7 3.7 12.6 3.4 5.4.2 10.2-1 14.4-3.4 6.2-2.2 8.3 0 6.3 6.9a54.8 54.8 0 0 1-35 .8c-2.9-3.5-2.3-6 1.7-7.7z" clip-rule="evenodd"/>
  <path fill="#167197" fill-rule="evenodd" d="M458.8 408a9 9 0 0 1 2.7 5.2 59.4 59.4 0 0 1 0 20.6c-6.4 4.4-12.4 9.5-18 15.5a4 4 0 0 0-1 3.4 51.9 51.9 0 0 0-9.8 15.5c-1 8.5-1.2 17-1 25.7h-3.5v-22.3a46.3 46.3 0 0 0 1-20.6 4 4 0 0 0-2.8-1.7c1.2-4.7 4.2-7.5 9-8.6a38.3 38.3 0 0 0 23.4-32.7z" clip-rule="evenodd"/>
  <path fill="#9F600D" fill-rule="evenodd" d="M121.8 456.1c-4.5 3-6 7-4.5 12 3.4 3.5 7.3 6.4 11.7 8.6 2 27.2-6 30.7-24.3 10.4-13.1-25.5-7.4-45.8 17.1-61 5.5-1.4 11-1.2 16.2.8-6.8 9-12.2 18.8-16.2 29.2z" clip-rule="evenodd"/>
  <path fill="#603D42" fill-rule="evenodd" d="M166.9 423.5c11.3 1.5 22.7 2 34.2 1.7a18 18 0 0 1-10.8 1.7c-6.4-.5-12.4 0-18 1.7-3.6 0-5.4-1.7-5.4-5.1z" clip-rule="evenodd"/>
  <path fill="#9B1421" fill-rule="evenodd" d="M181.3 447.5A116 116 0 0 0 175 482a1147 1147 0 0 0-5.4-27.5 19.8 19.8 0 0 0-8.1 17.2c.1 14.5 7.3 24.2 21.6 29.2 1.8.9 2 2 .9 3.4a133 133 0 0 0-28.8 20.6l-1.8-12a6.6 6.6 0 0 0-2.8-1.7 90.4 90.4 0 0 0-21.6 19l8.1-19c1.2-3 1.2-5.7 0-8.6a107.6 107.6 0 0 1-17 35.2 14 14 0 0 1-16.3 0c-1.7-1.2-2-2.6-1-4.3 2.8-1 5-2.8 6.4-5a91.8 91.8 0 0 0 24.3-44.8l1.8-48c5-8.6 12.7-11 22.6-7a13.8 13.8 0 0 0-5.5 13.8c2.4.3 4.5-.3 6.4-1.7 1 16.7 5.6 18 13.5 3.4l3.6 5.2c1.6-1.1 3.4-1.7 5.4-1.8z" clip-rule="evenodd"/>
  <path fill="#AB6830" fill-rule="evenodd" d="M172.3 428.6a48.3 48.3 0 0 1 18-1.7c1.3 1.6 3 2.1 5.4 1.7a42 42 0 0 1-23.4 0z" clip-rule="evenodd"/>
  <path fill="#BD1D2E" fill-rule="evenodd" d="M208.3 435.5c-6 2-10 6-11.7 12a92.5 92.5 0 0 0 0 25.8 278 278 0 0 0 15.3 39.5c-3 10.4-9 19-18 25.8a16.8 16.8 0 0 0-12.6-6 68.4 68.4 0 0 0-21.6 0c-9.7 3.3-19.7 5.9-29.8 7.7l-6.3-1.7c1.4-3.3 3.2-6.1 5.4-8.6 6-7.3 13.2-13.6 21.6-18.9 1 .4 2 1 2.8 1.7l1.8 12a133 133 0 0 1 28.8-20.6c1.2-1.4 1-2.5-1-3.4-14.2-5-21.4-14.7-21.5-29.2-.3-7 2.4-12.8 8-17.2 2 9 3.8 18.2 5.5 27.5a116 116 0 0 1 6.3-34.4c5.2-3.8 9.4-8.7 12.6-14.6 4.2-1.1 8.4-1.1 12.6 0 1 .7 1.6 1.6 1.8 2.6z" clip-rule="evenodd"/>
  <path fill="#9A8C84" fill-rule="evenodd" d="M208.3 435.5c3.5-.5 6.5 0 9 1.7-.8 0-1.4.2-1.8 1l4.5 4.2c-.6 17 3 33 10.8 48l1.8 13.8c3.3 3 7.2 4 11.8 3.5v-5.2l3.6-5.1c.6 6.2-.6 12-3.6 17.1a20 20 0 0 1-16.3-5.1v-5.2c2-2 2.3-4 1-6.8a200.8 200.8 0 0 1-20.8-29.2c-3.5 1.6-6.2.4-8-3.5-2.2-11 .6-20.8 8-29.2z" clip-rule="evenodd"/>
  <path fill="#231C56" fill-rule="evenodd" d="M440.8 411.5a31 31 0 0 0 3.6 13.7 62.6 62.6 0 0 1-9 15.5c-4.8 1-7.8 4-9 8.6-13-1-26.3-1.4-39.7-1a12 12 0 0 0 5.4 3.5c-.4.7-1 1-1.8 1a42 42 0 0 0-1.8 17h-1.8c.8-6.7-.8-13-4.5-19-3.2-2.8-7-4-11.7-3.3l5.4-4.3-1.8-1.7a45.5 45.5 0 0 1-18-4.3c16.6 3.2 33.5 5.5 50.4 7a31 31 0 0 0 16.2-3.5c4.7-1 9-3 12.7-6 8.2-8.5 7-14.5-3.6-18h7.2c-.5-2.3.1-4 1.8-5.2z" clip-rule="evenodd"/>
  <path fill="#067298" fill-rule="evenodd" d="M370.5 447.5c4.6-.6 8.5.5 11.7 3.5a28 28 0 0 1 4.5 18.9v22.3H376c.5-3 0-6-1.8-8.6-1.4.8-2 2-1.8 3.5a152.6 152.6 0 0 0-16.2 40.3c-2.7.9-4.8 0-6.3-2.6-2-6.5-5.3-12.2-10-17a54.8 54.8 0 0 0 15.4-20.7c3.8-10.2 7-20.5 10-31-.3-1-1-1.6-2-1.7l7.3-6.9z" clip-rule="evenodd"/>
  <path fill="#322C57" fill-rule="evenodd" d="M426.4 449.3a4 4 0 0 1 2.7 1.7c1.2 7 1 13.8-1 20.6-6.8-.6-7-2.3-.8-5.2 1.4-5 1-9.9-1-14.6-10.7-.8-21.6-1-32.4-.8.8 4.6 1.7 9.1 2.7 13.7a7.1 7.1 0 0 0 6.3 3.5c0 1 .6 1.7 1.8 1.7a37 37 0 0 1 3.6 15.4H403v-12h-5.4v22.3a186 186 0 0 0-7.2-43c.8.2 1.4 0 1.8-.8-2-.7-4-1.8-5.4-3.4a354 354 0 0 1 39.7.9z" clip-rule="evenodd"/>
  <path fill="#9E908A" fill-rule="evenodd" d="M121.8 456.1c3.6-3.3 6.3-7.3 8-12a79.9 79.9 0 0 1-.8 29.2c-8.8-3.2-11.2-9-7.2-17.2z" clip-rule="evenodd"/>
  <path fill="#6C452E" fill-rule="evenodd" d="M390.3 452.7a186 186 0 0 1 7.2 43v1.7c-3 .3-5.6-.2-8-1.8-1-8.5-1.3-17.1-1-25.7a42 42 0 0 1 1.8-17.2z" clip-rule="evenodd"/>
  <path fill="#714E49" fill-rule="evenodd" d="M419.1 473.3c-.8-2-2.6-3.2-5.4-3.4-2.7.2-4.5 1.4-5.4 3.4-1.4-3-2.3-6.5-2.7-10.3-.9 2.2-1.2 4.5-.9 6.9-1.2 0-1.8-.6-1.8-1.7v-7h5.4v7H421c.5 2.2-.1 4-1.8 5z" clip-rule="evenodd"/>
  <path fill="#D37F29" fill-rule="evenodd" d="M203 471.6h5.3c-2 15.8-3.8 15.8-5.4 0z" clip-rule="evenodd"/>
  <path fill="#DAC9BB" fill-rule="evenodd" d="M217.3 437.2c2.4 1.4 4.5 3 6.3 5.2.6 7.5 1.8 15 3.6 22.3 7.2 12 13 24.6 17.2 37.8v5.2a14 14 0 0 1-11.8-3.5l-1.8-13.7a94.8 94.8 0 0 1-10.8-48.1l-4.5-4.3c.4-.7 1-1 1.8-.9z" clip-rule="evenodd"/>
  <path fill="#A7794E" fill-rule="evenodd" d="M428.2 471.6V494c-10 2.6-20.2 3.8-30.7 3.5v-24.1h5.4v12h5.4a37.5 37.5 0 0 0-3.6-15.4 13 13 0 0 1 1-7c.3 3.9 1.2 7.3 2.6 10.4H419c1.7-1.2 2.3-3 1.8-5h-12.6v-7H403v7a7.1 7.1 0 0 1-6.3-3.6c-1-4.6-2-9-2.7-13.7 10.8-.3 21.7 0 32.5.8 2 4.7 2.3 9.6.9 14.6-6.3 3-6 4.6.9 5.2z" clip-rule="evenodd"/>
  <path fill="#302252" fill-rule="evenodd" d="M419.1 473.3h-10.8c1-2 2.7-3.2 5.4-3.4 2.8.2 4.6 1.4 5.4 3.4z" clip-rule="evenodd"/>
  <path fill="#2A1A52" fill-rule="evenodd" d="M419.1 476.7c2.1.5 3.3 2 3.6 4.3l-1.8 4.3a11.8 11.8 0 0 1-1.8-8.6z" clip-rule="evenodd"/>
  <path fill="#56216A" fill-rule="evenodd" d="M311 461.3c-2.2 4-1 7 3.6 9.4l-3.6 1.7c5.1 2.6 5.7 5.2 1.8 7.8 2 2.4 4.4 4.4 7.2 6a9.2 9.2 0 0 0-5.4 6c3.2 1.4 4.4 3.4 3.6 6a8 8 0 0 0 7.2 0l-1.8-1.7c5.5-4 6.7-8.6 3.6-13.7 3.8-2.7 5-6 3.6-9.5 2-3.2 3.5-6.7 4.6-10.3a57.7 57.7 0 0 1 6.3 17.2c-2 2.4-1.5 4.4 1.8 6-2 2-1.4 3.4 1.8 4.3l7.2-10.3a54.4 54.4 0 0 1-7.2 17.2c-5.2 3-7.6 7.5-7.2 13.7a17 17 0 0 1-5.5 6.9c0-1-.7-1.5-1.8-1.7a204 204 0 0 0-19 6.8l-17-12.9a345.7 345.7 0 0 0-39.6-2.5c1.2-4 1.5-8 1-12l-11.8-3.5-1.9-3.4c4.1.5 7.7-.3 10.9-2.6-1.2-2.3-3-4-5.4-5.2 4.4-1.2 6.2-3.5 5.4-6.8 2-4.7 5-9.6 9-14.6l-1.8-3.5a38 38 0 0 0 4.5-10.3c2 8 4.8 15.8 8 23.2l-1.7 1.7c4.3 2.3 4.3 4 0 5.2l7.2 5.1a11.5 11.5 0 0 0-5.4 5.2c3 1.5 3.5 3.2 1.8 5a25.6 25.6 0 0 0 16.2 5.3l-1.8-1.7c5.3-1.5 6-3.2 1.8-5.2 7.2-2.3 7.2-4.6 0-6.8l7.2-5.2-1.8-1.7c4.3-2.3 4.3-4 0-5.2 2.7-2.3 5.1-5 7.2-7.7-1.5-1.6-1.8-3.4-1-5.2 1.8-1.4 3-3 3.7-5l4.5 8.5z" clip-rule="evenodd"/>
  <path fill="#67B5CA" fill-rule="evenodd" d="M363.3 454.4c1 .1 1.6.7 1.8 1.7-2.8 10.5-6 20.8-10 31-3.5 8.2-8.6 15-15.2 20.6l5.4-10.3a55.2 55.2 0 0 0 7.2-17.2 284 284 0 0 1 10.8-25.8z" clip-rule="evenodd"/>
  <path fill="#2B3569" fill-rule="evenodd" d="M386.7 469.9h1.8c-.3 8.6 0 17.2 1 25.7 2.4 1.6 5 2.1 8 1.8 10.5.3 20.7-.9 30.7-3.5h3.6a44 44 0 0 1 3.6 8.6 19 19 0 0 0-3.6 8.6 928 928 0 0 0-39.7 3.4c-11.7.6-15.6-4.5-11.7-15.4 8-3.2 8.3-4.4 1-3.5a8.6 8.6 0 0 0-7.3-1.7c.5-2.7-.1-5-1.8-6.8-.2-1.6.4-2.7 1.8-3.5a12 12 0 0 1 1.8 8.6h10.8V470z" clip-rule="evenodd"/>
  <path fill="#7D9BBF" fill-rule="evenodd" d="M422.7 497.4h9c1.2 8.9-3 12.9-12.6 12a15 15 0 0 1 3.6-12z" clip-rule="evenodd"/>
  <path fill="#7A9BBF" fill-rule="evenodd" d="M386.7 500.8H403a15 15 0 0 1-1.8 9.4c-4.7 1-9.5 1.2-14.4 1v-10.4z" clip-rule="evenodd"/>
  <path fill="#7C9EC2" fill-rule="evenodd" d="M406.5 500.8h9v8.6h-9v-8.6z" clip-rule="evenodd"/>
  <path fill="#067197" fill-rule="evenodd" d="M431.8 511.1a57.2 57.2 0 0 0 23.4 29.2c-5.8.8-11-.3-15.3-3.4-.7 2.8.2 5 2.7 6.8-1.5 2.2-4 3.3-7.2 3.5-4.3.2-8-1-10.8-3.5-1.4-2.5-4.4-4.5-9-6-5-.3-9.8-1.1-14.5-2.5-2.4-4-6-6.3-10.8-7-1.5-1.6-2.7-1.6-3.6 0a43 43 0 0 0 9 11.3 13.5 13.5 0 0 0-10.8 9.4 29.2 29.2 0 0 1-13.5-18.9c-.9 2.8-1.2 5.7-1 8.6-3 .4-4.7-.8-5.3-3.4 1.7-13 5-25.7 9.9-37.8 1.8-1.5 4-2 6.3-1.8 7.4-.9 7 .3-1 3.5-4 10.9 0 16 11.8 15.4a928 928 0 0 1 39.7-3.4z" clip-rule="evenodd"/>
  <path fill="#6DBDD0" fill-rule="evenodd" d="M435.4 502.5c6 14.2 15 26.5 27 37-2.3.8-4.7 1-7.2.8a57 57 0 0 1-23.4-29.2 19 19 0 0 1 3.6-8.6z" clip-rule="evenodd"/>
  <path fill="#3B2267" fill-rule="evenodd" d="M312.8 537c6 2.5 11 1.3 15.3-3.6 3-4.5 6.6-8.5 10.9-12-.5-3.8-.8-7.3-1-10.3-.3-6.2 2-10.7 7.3-13.7l-5.4 10.3a42 42 0 0 1 9.9 17c1.5 2.7 3.6 3.6 6.3 2.7 3.4-14.1 8.8-27.6 16.2-40.3a7.7 7.7 0 0 1 1.8 6.8c2.9-.4 5.3.1 7.2 1.7a8 8 0 0 0-6.3 1.8 158.2 158.2 0 0 0-10 37.8c-1.5 1.2-2.1 2.9-1.7 5h5.4c-2.2 6.3-4.3 12.6-6.3 19-22.4-1.7-45-2.3-67.6-1.7v5c-3.4-2-4.3-4.7-2.7-8.4 11-5.5 10.7-9.3-.9-11.2 3 1.5 3.5 3.2 1.8 5.1-9.5 2-18.9 4.5-28 7.8a4.1 4.1 0 0 0 0 5.1c6.6 6.5 5.1 10.7-4.4 13a418 418 0 0 1-29 4.2c.6-4 0-7.7-1.7-11.2-4.6-2-9.4-3.3-14.4-4.3v-17.1c-6.1-1.2-8.5-5-7.2-11.2l7.2-22.3c-1.3-5.2-3.4-10-6.3-14.6a31.7 31.7 0 0 1 1.8-19l13.5 19c-4.8 3.6-6.3 8.1-4.5 13.7a351 351 0 0 1 19 5.2c-.7 8.5 3.5 12 12.6 10.3-.3-3 0-5.8.9-8.6a680 680 0 0 0 29.7 13c9 0 18-.3 27-1-.5 3.2.7 5.5 3.6 7z" clip-rule="evenodd"/>
  <path fill="#EC8F24" fill-rule="evenodd" d="M266 511.1c9.9 2.3 20 4 30.6 5.2 4.7 2.2 9 5.4 12.6 9.4-10.8 3-21.7 3-32.4 0l-23.4-9.4c3.9-1.3 8-1.6 12.6-1-14-3-14-4.4 0-4.2z" clip-rule="evenodd"/>
  <path fill="#B08F77" fill-rule="evenodd" d="M338 511.1c.2 3 .5 6.5 1 10.3a52.2 52.2 0 0 0-10.9 12c-4.2 5-9.3 6-15.3 3.5-1.4-2.5-1.4-4.8 0-6.9 1.3 1 2.2 2 2.7 3.4 2-8 5-8.6 9-1.7.6-6.6-2.4-8.3-9-5.1-1.2-1.5-1-2.6 1-3.5 5.5-1.4 10.9-3.2 16.1-5.1a17 17 0 0 0 5.5-6.9z" clip-rule="evenodd"/>
  <path fill="#A16114" fill-rule="evenodd" d="M248 497.4c2-.4 3.9.2 5.4 1.7a15 15 0 0 0-1.8 8.6 4.5 4.5 0 0 0-1.8 5c.2 4.5-1 8.5-3.6 12-2.2-.6-4-1.7-5.5-3.3 2-2 3.3-4.2 3.7-6.9 3-5.1 4.2-10.9 3.6-17.1z" clip-rule="evenodd"/>
  <path fill="#F0CA9F" fill-rule="evenodd" d="M266 511.1h1.8c9 .7 18 1.5 27 2.6 1 .6 1.6 1.5 1.8 2.6A243.8 243.8 0 0 1 266 511z" clip-rule="evenodd"/>
  <path fill="#855542" fill-rule="evenodd" d="M251.6 507.7l16.2 3.4H266c-14-.2-14 1.3 0 4.3-4.5-.7-8.7-.4-12.6.9l-3.6-3.5c-.5-2.2 0-4 1.8-5z" clip-rule="evenodd"/>
  <path fill="#9B5D10" fill-rule="evenodd" d="M228.1 504.2v5.2c-3.6 2.6-6 1.7-7.2-2.6 1.2-4.3 3.6-5 7.2-2.6z" clip-rule="evenodd"/>
  <path fill="#64AFC6" fill-rule="evenodd" d="M390.3 528.3c4.8.6 8.4 2.8 10.8 7 4.7 1.3 9.5 2.1 14.4 2.4 4.7 1.5 7.7 3.5 9 6a175 175 0 0 0-27-6.8l-7.2-8.6z" clip-rule="evenodd"/>
  <path fill="#BFAFA7" fill-rule="evenodd" d="M204.7 533.4c1.8 4.2 2.4 8.8 1.8 13.8a17 17 0 0 0-9 1.7l-1.8-3.4a44 44 0 0 1 9-12z" clip-rule="evenodd"/>
  <path fill="#C4B3AA" fill-rule="evenodd" d="M152.4 540.3h7.3v10.3l-10.9-1.7a10 10 0 0 1 3.6-8.6z" clip-rule="evenodd"/>
  <path fill="#2F2163" fill-rule="evenodd" d="M390.3 528.3l7.2 8.6a179 179 0 0 1 27 6.8c3 2.6 6.6 3.7 10.9 3.5 3.3-.2 5.7-1.3 7.2-3.5 7.4-1.4 15.3-2.2 23.4-2.5-2.2-2-1.6-2.8 1.8-2.6a244 244 0 0 1-27 39.5l-3.6-5.1c.2-6-2.8-8.2-9-7-.4-4-1-8-1.8-12h-14.5c2 8.2 2 16.2 0 24v1.8c-9.6-.3-19.2-.9-28.8-1.7.6-8.4 0-16.4-1.8-24-5.3-1.4-10.7-2-16.2-1.8v15.5c-6.2-1.2-11 .6-14.4 5.2H347a133 133 0 0 1-52.3-10.4v-5.1c22.7-.6 45.2 0 67.6 1.7 2-6.4 4-12.7 6.3-19h-5.4c-.4-2.1.2-4 1.8-5 .6 2.6 2.4 3.8 5.4 3.4-.3-3 0-5.8.9-8.6 1.8 8 6.3 14.4 13.5 19 1.7-5 5.3-8.3 10.8-9.5-3.6-3.3-6.6-7-9-11.2.9-1.7 2-1.7 3.6 0z" clip-rule="evenodd"/>
  <path fill="#83593C" fill-rule="evenodd" d="M370.5 542c4 1 7 3.3 9 7-6.4 2.2-9.4 0-9-7z" clip-rule="evenodd"/>
  <path fill="#895C3B" fill-rule="evenodd" d="M413.7 545.5c14 2.5 14 4.2 0 5v-5z" clip-rule="evenodd"/>
  <path fill="#B11A2A" fill-rule="evenodd" d="M203 549h9a99 99 0 0 0 .8 18.8 15 15 0 0 1 13.5 1c3 2.3 4.2 5.5 3.6 9.3h-34.2c.4-7.8-.2-15.6-1.8-23.2 2.6-2.8 5.6-4.8 9-6z" clip-rule="evenodd"/>
  <path fill="#A01624" fill-rule="evenodd" d="M143.4 552.3c6-.5 11.6.1 17.2 1.8.9 8 1.2 16 .9 24h-30.7c-.1-7.2 3.5-11.3 10.8-12l1.8-13.8z" clip-rule="evenodd"/>
  <path fill="#613919" fill-rule="evenodd" d="M381.3 554v25.8c-9.6.3-19.2 0-28.8-.8a7.3 7.3 0 0 1-1.8-6c3.4-4.6 8.2-6.4 14.4-5.2v-15.5c5.5-.2 11 .4 16.2 1.8z" clip-rule="evenodd"/>
  <path fill="#2C2163" fill-rule="evenodd" d="M192 579.8h-28.7v-44.6c7.2-.3 14.4 0 21.6.8l8 7.7c-.5 12-.8 24-.8 36z" clip-rule="evenodd"/>
  <path fill="#613A1A" fill-rule="evenodd" d="M437.2 573v6.8c-8.6.5-17 0-25.3-1.7 2-8 2-16 0-24h14.5c.8 4 1.4 8 1.8 12 6.2-1.3 9.2 1 9 6.9z" clip-rule="evenodd"/>
  <path fill="#BDB099" fill-rule="evenodd" d="M294.8 562.6A133 133 0 0 0 347 573c1 2.6 2.2 5.2 3.6 7.7a1376 1376 0 0 1-119-1v-1.6c9.7-1 19.3-2.5 29-4.3 9.4-2.2 11-6.4 4.4-12.9a4.1 4.1 0 0 1 0-5.1c9-3.3 18.4-5.8 28-7.8 1.6-2 1-3.6-1.9-5 11.6 2 12 5.6 1 11-1.7 3.8-.8 6.7 2.6 8.6z" clip-rule="evenodd"/>
  <path fill="#2B2F54" fill-rule="evenodd" d="M381.3 554a81.4 81.4 0 0 1 1.8 24c4 2.4 8.9 3.5 14.4 3.5 5.2 0 10-.5 14.4-1.7V578c8.3 1.6 16.7 2.2 25.3 1.7V573l3.6 5a9 9 0 0 1-7.2 4.4 7097 7097 0 0 1-270.3-.9v-1.7h68.4c39.4 2 79 2.3 119 1a65.6 65.6 0 0 1-3.6-7.8h3.6c-.3 2.2.3 4.2 1.8 6a243 243 0 0 0 28.8.8V554z" clip-rule="evenodd"/>
  <g filter="url(#filter4_f_94_2)">
    <path fill="#D9D9D9" d="M123 381.4c1-.3 3.3-.8 4-4.4 0 .7.7 3.3 3.7 4.4 0 0-2.7 0-3.8 3.6 0-.8-.9-3-3.9-3.6z"/>
  </g>
  <g filter="url(#filter5_f_94_2)">
    <path fill="#D9D9D9" d="M411 362.4c1-.3 3.3-.8 3.9-4.4 0 .7.8 3.3 3.8 4.4 0 0-2.7 0-3.8 3.6 0-.8-.9-3-3.9-3.6z"/>
  </g>
  <g filter="url(#filter6_f_94_2)">
    <path fill="#D9D9D9" d="M172 319.4c1-.3 3.3-.8 3.9-4.4 0 .7.8 3.3 3.8 4.4 0 0-2.7 0-3.8 3.6 0-.8-.9-3-3.9-3.6z"/>
  </g>
  <g filter="url(#filter7_f_94_2)">
    <path fill="#D9D9D9" d="M348 412.7c.3 0 1.2-.4 1.4-1.7 0 .3.4 1.2 1.5 1.7 0 0-1 0-1.5 1.3 0-.3-.3-1.1-1.4-1.3z"/>
  </g>
  <path fill="url(#pattern0_94_2)" d="M196 144h201v205H196z"/>
  <g filter="url(#filter8_f_94_2)" opacity=".7">
    <g clip-path="url(#paint2_diamond_94_2_clip_path)" data-figma-skip-parse="true">
      <path fill="url(#paint2_diamond_94_2)" d="M394 336.4h13.2v13.5H394zm0 0h13.2v-13.5H394zm0 0h-13.2v13.5H394zm0 0h-13.2v-13.5H394z" shape-rendering="crispEdges"/>
    </g>
    <path d="M381.8 337.4l9-2.7v-9l5.4 7.3 9-2.8-5.6 7.2 5.5 7.2-8.9-2.8-5.5 7.2v-9l-9-2.7z"/>
  </g>
  <g filter="url(#filter9_f_94_2)" opacity=".7">
    <g clip-path="url(#paint3_diamond_94_2_clip_path)" data-figma-skip-parse="true">
      <path fill="url(#paint3_diamond_94_2)" d="M364.2 354.5h13.2V368h-13.2zm0 0h13.2V341h-13.2zm0 0H351V368h13.2zm0 0H351V341h13.2z" shape-rendering="crispEdges"/>
    </g>
    <path d="M352 355.4l8.9-2.7v-9l5.5 7.3 8.9-2.7-5.5 7 5.5 7.3-9-2.8-5.4 7.2v-8.8l-8.9-2.8z"/>
  </g>
  <g filter="url(#filter10_f_94_2)" opacity=".7">
    <g clip-path="url(#paint4_diamond_94_2_clip_path)" data-figma-skip-parse="true">
      <path fill="url(#paint4_diamond_94_2)" d="M370.1 350.8h13.2v13.5H370zm0 0h13.2v-13.5H370zm0 0H357v13.5h13.2zm0 0H357v-13.5h13.2z" shape-rendering="crispEdges"/>
    </g>
    <path d="M358 351.8l8.9-2.7v-8.9l5.4 7.2 9-2.7-5.6 7 5.5 7.3-9-2.8-5.3 7.2v-8.9l-9-2.7z"/>
  </g>
  <g filter="url(#filter11_f_94_2)" opacity=".7">
    <g clip-path="url(#paint5_diamond_94_2_clip_path)" data-figma-skip-parse="true">
      <path fill="url(#paint5_diamond_94_2)" d="M376 347.2h13.2v13.5H376zm0 0h13.2v-13.5H376zm0 0h-13.2v13.5H376zm0 0h-13.2v-13.5H376z" shape-rendering="crispEdges"/>
    </g>
    <path d="M364 348.2l8.8-2.7v-8.9l5.5 7.2 9-2.8-5.6 7.2 5.5 7.2-9-2.8-5.4 7.2v-9l-9-2.6z"/>
  </g>
  <g filter="url(#filter12_f_94_2)" opacity=".7">
    <g clip-path="url(#paint6_diamond_94_2_clip_path)" data-figma-skip-parse="true">
      <path fill="url(#paint6_diamond_94_2)" d="M382 343.6h13.2v13.5H382zm0 0h13.2v-13.5H382zm0 0h-13.2v13.5H382zm0 0h-13.2v-13.5H382z" shape-rendering="crispEdges"/>
    </g>
    <path d="M369.9 344.6l8.9-2.7V333l5.5 7.2 9-2.8-5.6 7.2 5.5 7.2-9-2.8-5.4 7.2v-9l-9-2.6z"/>
  </g>
  <g filter="url(#filter13_f_94_2)" opacity=".7">
    <g clip-path="url(#paint7_diamond_94_2_clip_path)" data-figma-skip-parse="true">
      <path fill="url(#paint7_diamond_94_2)" d="M388 340h13.2v13.5H388zm0 0h13.2v-13.5H388zm0 0h-13.2v13.5H388zm0 0h-13.2v-13.5H388z" shape-rendering="crispEdges"/>
    </g>
    <path d="M375.9 341l8.9-2.7v-9l5.4 7.3 9-2.8-5.6 7.2 5.5 7.2-8.9-2.8-5.4 7.2v-8.9l-9-2.7z"/>
  </g>
  <g filter="url(#filter14_f_94_2)" opacity=".7">
    <g clip-path="url(#paint8_diamond_94_2_clip_path)" data-figma-skip-parse="true">
      <path fill="url(#paint8_diamond_94_2)" d="M400 332.8h13.2v13.5H400zm0 0h13.2v-13.5H400zm0 0h-13.2v13.5H400zm0 0h-13.2v-13.5H400z" shape-rendering="crispEdges"/>
    </g>
    <path d="M387.8 333.8l9-2.7v-8.9l5.4 7.2 9-2.8-5.6 7.2 5.5 7.2-9-2.8-5.4 7.2v-8.9l-9-2.7z"/>
  </g>
  <g filter="url(#filter15_f_94_2)" opacity=".7">
    <g clip-path="url(#paint9_diamond_94_2_clip_path)" data-figma-skip-parse="true">
      <path fill="url(#paint9_diamond_94_2)" d="M406 329.2h13.2v13.5H406zm0 0h13.2v-13.5H406zm0 0h-13.2v13.5H406zm0 0h-13.2v-13.5H406z" shape-rendering="crispEdges"/>
    </g>
    <path d="M393.8 330.2l9-2.7v-8.9l5.3 7.2 9-2.8-5.6 7.2 5.5 7-8.9-2.6-5.4 7.2v-9l-9-2.6z"/>
  </g>
  <g filter="url(#filter16_f_94_2)" opacity=".7">
    <g clip-path="url(#paint10_diamond_94_2_clip_path)" data-figma-skip-parse="true">
      <path fill="url(#paint10_diamond_94_2)" d="M411.9 325.6H425v13.5h-13.2zm0 0H425v-13.5h-13.2zm0 0h-13.2v13.5H412zm0 0h-13.2v-13.5H412z" shape-rendering="crispEdges"/>
    </g>
    <path d="M399.7 326.6l9-2.8V315l5.4 7.2 8.9-2.8-5.5 7.2 5.5 7.1-8.9-2.7-5.5 7.2v-9l-8.9-2.6z"/>
  </g>
  <g filter="url(#filter17_f_94_2)">
    <g filter="url(#filter18_f_94_2)">
      <path fill="#FF0" fill-opacity=".8" d="M356.2 356c2.2-.7 8-2 9.4-10.3 0 1.7 2 7.7 9.4 10.2 0 0-6.7 0-9.4 8.3 0-2-2-7-9.4-8.3z"/>
    </g>
  </g>
  <defs>
    <filter id="filter0_f_94_2" width="589.7" height="521.5" x=".7" y="0" color-interpolation-filters="sRGB" filterUnits="userSpaceOnUse">
      <feFlood flood-opacity="0" result="BackgroundImageFix"/>
      <feBlend in="SourceGraphic" in2="BackgroundImageFix" result="shape"/>
      <feGaussianBlur result="effect1_foregroundBlur_94_2" stdDeviation="100"/>
    </filter>
    <filter id="filter1_f_94_2" width="16" height="16.5" x="239" y="329" color-interpolation-filters="sRGB" filterUnits="userSpaceOnUse">
      <feFlood flood-opacity="0" result="BackgroundImageFix"/>
      <feBlend in="SourceGraphic" in2="BackgroundImageFix" result="shape"/>
      <feGaussianBlur result="effect1_foregroundBlur_94_2" stdDeviation=".5"/>
    </filter>
    <filter id="filter2_f_94_2" width="8" height="8.2" x="239" y="388" color-interpolation-filters="sRGB" filterUnits="userSpaceOnUse">
      <feFlood flood-opacity="0" result="BackgroundImageFix"/>
      <feBlend in="SourceGraphic" in2="BackgroundImageFix" result="shape"/>
      <feGaussianBlur result="effect1_foregroundBlur_94_2" stdDeviation=".5"/>
    </filter>
    <filter id="filter3_f_94_2" width="9.7" height="10" x="292" y="349" color-interpolation-filters="sRGB" filterUnits="userSpaceOnUse">
      <feFlood flood-opacity="0" result="BackgroundImageFix"/>
      <feBlend in="SourceGraphic" in2="BackgroundImageFix" result="shape"/>
      <feGaussianBlur result="effect1_foregroundBlur_94_2" stdDeviation=".5"/>
    </filter>
    <filter id="filter4_f_94_2" width="9.7" height="10" x="122" y="376" color-interpolation-filters="sRGB" filterUnits="userSpaceOnUse">
      <feFlood flood-opacity="0" result="BackgroundImageFix"/>
      <feBlend in="SourceGraphic" in2="BackgroundImageFix" result="shape"/>
      <feGaussianBlur result="effect1_foregroundBlur_94_2" stdDeviation=".5"/>
    </filter>
    <filter id="filter5_f_94_2" width="9.7" height="10" x="410" y="357" color-interpolation-filters="sRGB" filterUnits="userSpaceOnUse">
      <feFlood flood-opacity="0" result="BackgroundImageFix"/>
      <feBlend in="SourceGraphic" in2="BackgroundImageFix" result="shape"/>
      <feGaussianBlur result="effect1_foregroundBlur_94_2" stdDeviation=".5"/>
    </filter>
    <filter id="filter6_f_94_2" width="9.7" height="10" x="171" y="314" color-interpolation-filters="sRGB" filterUnits="userSpaceOnUse">
      <feFlood flood-opacity="0" result="BackgroundImageFix"/>
      <feBlend in="SourceGraphic" in2="BackgroundImageFix" result="shape"/>
      <feGaussianBlur result="effect1_foregroundBlur_94_2" stdDeviation=".5"/>
    </filter>
    <filter id="filter7_f_94_2" width="4.9" height="5" x="347" y="410" color-interpolation-filters="sRGB" filterUnits="userSpaceOnUse">
      <feFlood flood-opacity="0" result="BackgroundImageFix"/>
      <feBlend in="SourceGraphic" in2="BackgroundImageFix" result="shape"/>
      <feGaussianBlur result="effect1_foregroundBlur_94_2" stdDeviation=".5"/>
    </filter>
    <pattern id="pattern0_94_2" width="1" height="1" patternContentUnits="objectBoundingBox">
      <use transform="scale(.00453 .00444)" xlink:href="#image0_94_2"/>
    </pattern>
    <filter id="filter8_f_94_2" width="52.9" height="52.8" x="367" y="311" color-interpolation-filters="sRGB" filterUnits="userSpaceOnUse">
      <feFlood flood-opacity="0" result="BackgroundImageFix"/>
      <feBlend in="SourceGraphic" in2="BackgroundImageFix" result="shape"/>
      <feGaussianBlur result="effect1_foregroundBlur_94_2" stdDeviation="7.4"/>
    </filter>
    <clipPath id="paint2_diamond_94_2_clip_path">
      <path d="M381.8 337.4l9-2.7v-9l5.4 7.3 9-2.8-5.6 7.2 5.5 7.2-8.9-2.8-5.5 7.2v-9l-9-2.7z"/>
    </clipPath>
    <filter id="filter9_f_94_2" width="52.9" height="52.8" x="337.2" y="329" color-interpolation-filters="sRGB" filterUnits="userSpaceOnUse">
      <feFlood flood-opacity="0" result="BackgroundImageFix"/>
      <feBlend in="SourceGraphic" in2="BackgroundImageFix" result="shape"/>
      <feGaussianBlur result="effect1_foregroundBlur_94_2" stdDeviation="7.4"/>
    </filter>
    <clipPath id="paint3_diamond_94_2_clip_path">
      <path d="M352 355.4l8.9-2.7v-9l5.5 7.3 8.9-2.7-5.5 7 5.5 7.3-9-2.8-5.4 7.2v-8.8l-8.9-2.8z"/>
    </clipPath>
    <filter id="filter10_f_94_2" width="52.9" height="52.8" x="343.2" y="325.4" color-interpolation-filters="sRGB" filterUnits="userSpaceOnUse">
      <feFlood flood-opacity="0" result="BackgroundImageFix"/>
      <feBlend in="SourceGraphic" in2="BackgroundImageFix" result="shape"/>
      <feGaussianBlur result="effect1_foregroundBlur_94_2" stdDeviation="7.4"/>
    </filter>
    <clipPath id="paint4_diamond_94_2_clip_path">
      <path d="M358 351.8l8.9-2.7v-8.9l5.4 7.2 9-2.7-5.6 7 5.5 7.3-9-2.8-5.3 7.2v-8.9l-9-2.7z"/>
    </clipPath>
    <filter id="filter11_f_94_2" width="52.9" height="52.8" x="349.1" y="321.8" color-interpolation-filters="sRGB" filterUnits="userSpaceOnUse">
      <feFlood flood-opacity="0" result="BackgroundImageFix"/>
      <feBlend in="SourceGraphic" in2="BackgroundImageFix" result="shape"/>
      <feGaussianBlur result="effect1_foregroundBlur_94_2" stdDeviation="7.4"/>
    </filter>
    <clipPath id="paint5_diamond_94_2_clip_path">
      <path d="M364 348.2l8.8-2.7v-8.9l5.5 7.2 9-2.8-5.6 7.2 5.5 7.2-9-2.8-5.4 7.2v-9l-9-2.6z"/>
    </clipPath>
    <filter id="filter12_f_94_2" width="52.9" height="52.8" x="355.1" y="318.2" color-interpolation-filters="sRGB" filterUnits="userSpaceOnUse">
      <feFlood flood-opacity="0" result="BackgroundImageFix"/>
      <feBlend in="SourceGraphic" in2="BackgroundImageFix" result="shape"/>
      <feGaussianBlur result="effect1_foregroundBlur_94_2" stdDeviation="7.4"/>
    </filter>
    <clipPath id="paint6_diamond_94_2_clip_path">
      <path d="M369.9 344.6l8.9-2.7V333l5.5 7.2 9-2.8-5.6 7.2 5.5 7.2-9-2.8-5.4 7.2v-9l-9-2.6z"/>
    </clipPath>
    <filter id="filter13_f_94_2" width="52.9" height="52.8" x="361.1" y="314.6" color-interpolation-filters="sRGB" filterUnits="userSpaceOnUse">
      <feFlood flood-opacity="0" result="BackgroundImageFix"/>
      <feBlend in="SourceGraphic" in2="BackgroundImageFix" result="shape"/>
      <feGaussianBlur result="effect1_foregroundBlur_94_2" stdDeviation="7.4"/>
    </filter>
    <clipPath id="paint7_diamond_94_2_clip_path">
      <path d="M375.9 341l8.9-2.7v-9l5.4 7.3 9-2.8-5.6 7.2 5.5 7.2-8.9-2.8-5.4 7.2v-8.9l-9-2.7z"/>
    </clipPath>
    <filter id="filter14_f_94_2" width="52.9" height="52.8" x="373" y="307.4" color-interpolation-filters="sRGB" filterUnits="userSpaceOnUse">
      <feFlood flood-opacity="0" result="BackgroundImageFix"/>
      <feBlend in="SourceGraphic" in2="BackgroundImageFix" result="shape"/>
      <feGaussianBlur result="effect1_foregroundBlur_94_2" stdDeviation="7.4"/>
    </filter>
    <clipPath id="paint8_diamond_94_2_clip_path">
      <path d="M387.8 333.8l9-2.7v-8.9l5.4 7.2 9-2.8-5.6 7.2 5.5 7.2-9-2.8-5.4 7.2v-8.9l-9-2.7z"/>
    </clipPath>
    <filter id="filter15_f_94_2" width="90.9" height="90.8" x="360" y="284.8" color-interpolation-filters="sRGB" filterUnits="userSpaceOnUse">
      <feFlood flood-opacity="0" result="BackgroundImageFix"/>
      <feBlend in="SourceGraphic" in2="BackgroundImageFix" result="shape"/>
      <feGaussianBlur result="effect1_foregroundBlur_94_2" stdDeviation="16.9"/>
    </filter>
    <clipPath id="paint9_diamond_94_2_clip_path">
      <path d="M393.8 330.2l9-2.7v-8.9l5.3 7.2 9-2.8-5.6 7.2 5.5 7-8.9-2.6-5.4 7.2v-9l-9-2.6z"/>
    </clipPath>
    <filter id="filter16_f_94_2" width="90.9" height="90.8" x="365.9" y="281.2" color-interpolation-filters="sRGB" filterUnits="userSpaceOnUse">
      <feFlood flood-opacity="0" result="BackgroundImageFix"/>
      <feBlend in="SourceGraphic" in2="BackgroundImageFix" result="shape"/>
      <feGaussianBlur result="effect1_foregroundBlur_94_2" stdDeviation="16.9"/>
    </filter>
    <clipPath id="paint10_diamond_94_2_clip_path">
      <path d="M399.7 326.6l9-2.8V315l5.4 7.2 8.9-2.8-5.5 7.2 5.5 7.1-8.9-2.7-5.5 7.2v-9l-8.9-2.6z"/>
    </clipPath>
    <filter id="filter17_f_94_2" width="20.8" height="20.4" x="355.2" y="344.7" color-interpolation-filters="sRGB" filterUnits="userSpaceOnUse">
      <feFlood flood-opacity="0" result="BackgroundImageFix"/>
      <feBlend in="SourceGraphic" in2="BackgroundImageFix" result="shape"/>
      <feGaussianBlur result="effect1_foregroundBlur_94_2" stdDeviation=".5"/>
    </filter>
    <filter id="filter18_f_94_2" width="24.8" height="24.4" x="353.2" y="342.7" color-interpolation-filters="sRGB" filterUnits="userSpaceOnUse">
      <feFlood flood-opacity="0" result="BackgroundImageFix"/>
      <feBlend in="SourceGraphic" in2="BackgroundImageFix" result="shape"/>
      <feGaussianBlur result="effect1_foregroundBlur_94_2" stdDeviation="1.5"/>
    </filter>
    <radialGradient id="paint0_radial_94_2" cx="0" cy="0" r="1" gradientTransform="matrix(0 81 -109.5 0 295.5 261)" gradientUnits="userSpaceOnUse">
      <stop stop-color="#DEEB7B"/>
      <stop offset="1" stop-color="#7E8546"/>
    </radialGradient>
    <linearGradient id="paint1_linear_94_2" x1="293" x2="293" y1="259" y2="670" gradientUnits="userSpaceOnUse">
      <stop stop-color="#F8DD7C"/>
      <stop offset=".4" stop-color="#906570"/>
      <stop offset=".7" stop-color="#56216A"/>
    </linearGradient>
    <linearGradient id="paint2_diamond_94_2" x1="0" x2="500" y1="0" y2="500" gradientUnits="userSpaceOnUse">
      <stop offset=".4" stop-color="#EAFF00"/>
      <stop offset="1" stop-color="#FFB206"/>
    </linearGradient>
    <linearGradient id="paint3_diamond_94_2" x1="0" x2="500" y1="0" y2="500" gradientUnits="userSpaceOnUse">
      <stop offset=".4" stop-color="#EAFF00"/>
      <stop offset="1" stop-color="#FFB206"/>
    </linearGradient>
    <linearGradient id="paint4_diamond_94_2" x1="0" x2="500" y1="0" y2="500" gradientUnits="userSpaceOnUse">
      <stop offset=".4" stop-color="#EAFF00"/>
      <stop offset="1" stop-color="#FFB206"/>
    </linearGradient>
    <linearGradient id="paint5_diamond_94_2" x1="0" x2="500" y1="0" y2="500" gradientUnits="userSpaceOnUse">
      <stop offset=".4" stop-color="#EAFF00"/>
      <stop offset="1" stop-color="#FFB206"/>
    </linearGradient>
    <linearGradient id="paint6_diamond_94_2" x1="0" x2="500" y1="0" y2="500" gradientUnits="userSpaceOnUse">
      <stop offset=".4" stop-color="#EAFF00"/>
      <stop offset="1" stop-color="#FFB206"/>
    </linearGradient>
    <linearGradient id="paint7_diamond_94_2" x1="0" x2="500" y1="0" y2="500" gradientUnits="userSpaceOnUse">
      <stop offset=".4" stop-color="#EAFF00"/>
      <stop offset="1" stop-color="#FFB206"/>
    </linearGradient>
    <linearGradient id="paint8_diamond_94_2" x1="0" x2="500" y1="0" y2="500" gradientUnits="userSpaceOnUse">
      <stop offset=".4" stop-color="#EAFF00"/>
      <stop offset="1" stop-color="#FFB206"/>
    </linearGradient>
    <linearGradient id="paint9_diamond_94_2" x1="0" x2="500" y1="0" y2="500" gradientUnits="userSpaceOnUse">
      <stop offset=".4" stop-color="#EAFF00"/>
      <stop offset="1" stop-color="#FFB206"/>
    </linearGradient>
    <linearGradient id="paint10_diamond_94_2" x1="0" x2="500" y1="0" y2="500" gradientUnits="userSpaceOnUse">
      <stop offset=".4" stop-color="#EAFF00"/>
      <stop offset="1" stop-color="#FFB206"/>
    </linearGradient>
  </defs>
</svg>
